<svg id="visual" viewBox="0 0 1800 545" width="1800" height="545" xmlns="http://www.w3.org/2000/svg" xmlns:xlink="http://www.w3.org/1999/xlink" version="1.1"><rect x="0" y="0" width="1800" height="545" fill="#EBF2FE"></rect><path d="M0 42L25 37.7C50 33.3 100 24.7 150 30C200 35.3 250 54.7 300 66.7C350 78.7 400 83.3 450 82.3C500 81.3 550 74.7 600 67C650 59.3 700 50.7 750 52.2C800 53.7 850 65.3 900 62.8C950 60.3 1000 43.7 1050 36C1100 28.3 1150 29.7 1200 32.8C1250 36 1300 41 1350 40.5C1400 40 1450 34 1500 40.3C1550 46.7 1600 65.3 1650 68C1700 70.7 1750 57.3 1775 50.7L1800 44L1800 0L1775 0C1750 0 1700 0 1650 0C1600 0 1550 0 1500 0C1450 0 1400 0 1350 0C1300 0 1250 0 1200 0C1150 0 1100 0 1050 0C1000 0 950 0 900 0C850 0 800 0 750 0C700 0 650 0 600 0C550 0 500 0 450 0C400 0 350 0 300 0C250 0 200 0 150 0C100 0 50 0 25 0L0 0Z" fill="#b6dfb7" stroke-linecap="round" stroke-linejoin="miter"></path></svg>