<svg id="visual" viewBox="0 0 1800 545" width="1800" height="545" xmlns="http://www.w3.org/2000/svg" xmlns:xlink="http://www.w3.org/1999/xlink" version="1.1"><rect x="0" y="0" width="1800" height="545" fill="#ebf2fe"></rect><path d="M0 34L30 28.7C60 23.3 120 12.7 180 10.7C240 8.7 300 15.3 360 21.3C420 27.3 480 32.7 540 32.8C600 33 660 28 720 23.3C780 18.7 840 14.3 900 14.2C960 14 1020 18 1080 18.5C1140 19 1200 16 1260 19.3C1320 22.7 1380 32.3 1440 39C1500 45.7 1560 49.3 1620 42.3C1680 35.3 1740 17.7 1770 8.8L1800 0L1800 0L1770 0C1740 0 1680 0 1620 0C1560 0 1500 0 1440 0C1380 0 1320 0 1260 0C1200 0 1140 0 1080 0C1020 0 960 0 900 0C840 0 780 0 720 0C660 0 600 0 540 0C480 0 420 0 360 0C300 0 240 0 180 0C120 0 60 0 30 0L0 0Z" fill="#4f2cb7" stroke-linecap="round" stroke-linejoin="miter"></path></svg>